HIERARCHY
ROOT Hips
{
	OFFSET 53.831799 -13.242517 96.855103
	CHANNELS 6 Xposition Yposition Zposition Xrotation Yrotation Zrotation
	JOINT spine
	{
		OFFSET 0.000000 -0.458068 7.965683
		CHANNELS 3 Xrotation Yrotation Zrotation
		JOINT spine1
		{
			OFFSET 0.000000 -0.000002 10.243103
			CHANNELS 3 Xrotation Yrotation Zrotation
			JOINT spine2
			{
				OFFSET 0.000000 -0.000001 9.814751
				CHANNELS 3 Xrotation Yrotation Zrotation
				JOINT Neck
				{
					OFFSET 0.000000 -1.201385 25.198601
					CHANNELS 3 Xrotation Yrotation Zrotation
					JOINT Head
					{
						OFFSET 0.000000 -0.000001 7.613144
						CHANNELS 3 Xrotation Yrotation Zrotation
						End Site
						{
							OFFSET 0.000000 6.077327 18.428101
						}
					}
				}
				JOINT RightShoulder
				{
					OFFSET -4.132702 0.575449 10.599205
					CHANNELS 3 Xrotation Yrotation Zrotation
					JOINT RightArm
					{
						OFFSET 0.000000 -0.000003 13.901794
						CHANNELS 3 Xrotation Yrotation Zrotation
						JOINT RightArmRoll
						{
							OFFSET 0.000000 -0.000001 7.017883
							CHANNELS 3 Xrotation Yrotation Zrotation
							JOINT RightForeArm
							{
								OFFSET 0.000000 -0.000003 20.440598
								CHANNELS 3 Xrotation Yrotation Zrotation
								JOINT RightForeArmRoll
								{
									OFFSET 0.000000 -0.000002 7.875153
									CHANNELS 3 Xrotation Yrotation Zrotation
									JOINT RightHand
									{
										OFFSET 0.000000 -0.000002 15.803696
										CHANNELS 3 Xrotation Yrotation Zrotation
										End Site
										{
											OFFSET 0.000000 0.000000 0.100006
										}
									}
								}
							}
						}
					}
				}
				JOINT LeftShoulder
				{
					OFFSET 4.132702 0.575449 10.599205
					CHANNELS 3 Xrotation Yrotation Zrotation
					JOINT LeftArm
					{
						OFFSET 0.000000 -0.000003 13.901794
						CHANNELS 3 Xrotation Yrotation Zrotation
						JOINT LeftArmRoll
						{
							OFFSET 0.000000 -0.000001 7.017883
							CHANNELS 3 Xrotation Yrotation Zrotation
							JOINT LeftForeArm
							{
								OFFSET 0.000000 -0.000003 20.440598
								CHANNELS 3 Xrotation Yrotation Zrotation
								JOINT LeftForeArmRoll
								{
									OFFSET 0.000000 -0.000002 7.875168
									CHANNELS 3 Xrotation Yrotation Zrotation
									JOINT LeftHand
									{
										OFFSET 0.000000 -0.000002 15.803696
										CHANNELS 3 Xrotation Yrotation Zrotation
										End Site
										{
											OFFSET 0.000000 0.000000 0.100006
										}
									}
								}
							}
						}
					}
				}
			}
		}
	}
	JOINT RightUpLeg
	{
		OFFSET -7.060482 1.086101 -1.294701
		CHANNELS 3 Xrotation Yrotation Zrotation
		JOINT RightUpLegRoll
		{
			OFFSET 0.000000 -0.000003 18.530800
			CHANNELS 3 Xrotation Yrotation Zrotation
			JOINT RightLeg
			{
				OFFSET 0.000000 0.000003 -22.947601
				CHANNELS 3 Xrotation Yrotation Zrotation
				JOINT RightLegRoll
				{
					OFFSET 0.000000 -0.000004 23.022598
					CHANNELS 3 Xrotation Yrotation Zrotation
					JOINT RightFoot
					{
						OFFSET 0.000000 -0.000003 19.162506
						CHANNELS 3 Xrotation Yrotation Zrotation
						JOINT RightToeBase
						{
							OFFSET 0.000000 -0.000003 16.018799
							CHANNELS 3 Xrotation Yrotation Zrotation
							End Site
							{
								OFFSET 0.006790 0.894205 7.757812
							}
						}
					}
				}
			}
		}
	}
	JOINT LeftUpLeg
	{
		OFFSET 7.060482 1.086101 -1.294701
		CHANNELS 3 Xrotation Yrotation Zrotation
		JOINT LeftUpLegRoll
		{
			OFFSET 0.000000 -0.000003 18.530899
			CHANNELS 3 Xrotation Yrotation Zrotation
			JOINT LeftLeg
			{
				OFFSET 0.000000 -0.000004 22.947502
				CHANNELS 3 Xrotation Yrotation Zrotation
				JOINT LeftLegRoll
				{
					OFFSET 0.000000 -0.000004 23.235504
					CHANNELS 3 Xrotation Yrotation Zrotation
					JOINT LeftFoot
					{
						OFFSET 0.000000 -0.000004 18.949600
						CHANNELS 3 Xrotation Yrotation Zrotation
						JOINT LeftToeBase
						{
							OFFSET 0.000000 -0.000002 16.018799
							CHANNELS 3 Xrotation Yrotation Zrotation
							End Site
							{
								OFFSET -0.030430 0.894204 7.757812
							}
						}
					}
				}
			}
		}
	}
}
MOTION
Frames: 7
Frame Time: 0.041667
53.695602 -11.699918 96.920090 -2.639681 -1.192284 7.786795 -1.802707 0.162859 -0.086203 0.397168 0.327576 -0.168721 2.042254 0.325532 -0.172633 22.755122 11.710610 -2.763582 5.521948 -11.680845 -0.519268 -12.369089 -16.095684 -12.005358 -144.773987 -174.846081 -86.716669 0.000000 0.000000 0.000000 86.211194 0.091208 5.011346 -0.000003 0.000003 -3.004721 -5.000176 -8.000090 -0.000011 -6.930915 33.664247 5.795719 -133.816861 186.762111 95.332584 -0.000001 -0.000001 0.000000 61.992320 -4.311295 0.485928 -0.000004 0.000002 3.001220 -5.000218 7.999091 -0.000096 0.185578 -177.409014 2.645299 -179.999991 0.000005 -1.084998 171.097700 -1.445378 -0.619379 -0.000001 0.000003 0.221788 71.528719 6.854481 2.044956 25.456957 -7.355616 0.000000 3.388847 176.361358 -0.472147 -0.000005 -0.000005 -1.170110 -5.197925 1.236925 0.172177 -0.000003 0.000002 -0.042339 68.494469 -6.922331 -2.103635 25.456957 7.355613 -0.000009 
53.694103 -11.702320 96.919891 -2.622688 -1.192200 7.809344 -1.808060 0.167330 -0.084211 0.386125 0.336482 -0.164167 2.031205 0.334492 -0.168188 22.797515 11.574112 -2.748342 5.505734 -11.599010 -0.519455 -12.370402 -16.007470 -11.999455 -144.742705 -174.860424 -86.732242 -0.000001 -0.000001 -0.000000 86.705707 0.000286 5.104831 -0.000003 0.000003 -3.004720 -5.000176 -8.000090 -0.000007 -6.865452 33.609363 5.699129 -133.766468 186.839278 95.378476 0.000001 -0.000003 -0.000001 62.263601 -4.264566 0.465633 -0.000002 0.000000 3.001200 -5.000219 7.999093 -0.000097 0.182781 -177.413016 2.640931 -179.999991 0.000005 -1.084998 171.116798 -1.446452 -0.619053 -0.000000 0.000003 0.221278 71.524054 6.854567 2.045158 25.456953 -7.355614 0.000000 3.371153 176.358298 -0.470350 -0.000005 -0.000004 -1.169650 -5.193732 1.236255 0.172064 -0.000003 0.000002 -0.042382 68.496484 -6.922363 -2.103615 25.456953 7.355613 -0.000009 
53.689205 -11.714518 96.914902 -2.605066 -1.192038 7.831417 -1.813698 0.172100 -0.082181 0.374621 0.345974 -0.159267 2.019707 0.344041 -0.163403 22.841720 11.437457 -2.732271 5.489076 -11.520458 -0.518185 -12.371359 -15.923107 -11.993303 -144.710917 -174.862118 -86.752377 0.000000 0.000001 -0.000000 87.221782 -0.093943 5.201611 -0.000004 0.000002 -3.004709 -5.000174 -8.000090 -0.000010 -6.798265 33.551139 5.599654 -133.717263 186.909192 95.416821 -0.000002 0.000001 0.000000 62.532199 -4.220464 0.446386 -0.000004 -0.000001 3.001191 -5.000217 7.999095 -0.000099 0.179523 -177.418016 2.636277 -179.999991 0.000005 -1.084998 171.136045 -1.446528 -0.617557 -0.000001 0.000003 0.220759 71.519799 6.854642 2.045432 25.456955 -7.355615 0.000001 3.353111 176.354241 -0.468536 -0.000005 -0.000004 -1.169130 -5.189270 1.235566 0.171939 -0.000003 0.000002 -0.042424 68.498581 -6.922327 -2.103777 25.456952 7.355613 -0.000010 
53.687702 -11.714918 96.914391 -2.586907 -1.191755 7.852858 -1.819566 0.177102 -0.080134 0.362745 0.355920 -0.154110 2.007828 0.354049 -0.158364 22.887086 11.301273 -2.715417 5.472428 -11.445090 -0.515513 -12.372061 -15.842583 -11.987160 -144.678747 -174.852843 -86.775340 0.000001 -0.000001 -0.000001 87.753533 -0.190153 5.301346 -0.000004 0.000002 -3.004711 -5.000175 -8.000091 -0.000008 -6.729849 33.490446 5.498078 -133.669835 186.972221 95.448786 -0.000000 -0.000000 -0.000001 62.797176 -4.178774 0.428159 -0.000006 0.000001 3.001178 -5.000218 7.999097 -0.000100 0.175838 -177.422018 2.631409 -179.999991 0.000005 -1.084998 171.155374 -1.446604 -0.617068 -0.000001 0.000003 0.220226 71.515885 6.854745 2.045790 25.456953 -7.355615 0.000000 3.334818 176.351154 -0.466609 -0.000005 -0.000004 -1.168550 -5.184567 1.234888 0.171812 -0.000003 0.000002 -0.042466 68.500705 -6.922366 -2.103751 25.456953 7.355611 -0.000009 
53.682705 -11.710220 96.917496 -2.568304 -1.191353 7.873502 -1.825631 0.182275 -0.078097 0.350581 0.366196 -0.148785 1.995670 0.364388 -0.153165 22.932811 11.165987 -2.697712 5.456186 -11.372797 -0.511500 -12.372623 -15.766088 -11.981279 -144.646058 -174.834210 -86.799335 0.000001 -0.000001 0.000000 88.294696 -0.287072 5.403620 -0.000002 0.000002 -3.004699 -5.000175 -8.000091 -0.000008 -6.660705 33.428455 5.395275 -133.624660 187.028843 95.476243 0.000001 -0.000000 0.000000 63.057782 -4.139247 0.410947 -0.000002 0.000003 3.001170 -5.000219 7.999092 -0.000100 0.171748 -177.427018 2.626361 -179.999991 0.000005 -1.085996 171.174800 -1.446680 -0.615580 -0.000001 0.000003 0.219683 71.512388 6.854839 2.046020 25.456955 -7.355614 0.000001 3.316372 176.347111 -0.464711 -0.000005 -0.000005 -1.167929 -5.179665 1.234210 0.171678 -0.000002 0.000002 -0.042510 68.502911 -6.922375 -2.103716 25.456952 7.355613 -0.000010 
53.682205 -11.715816 96.915993 -2.549372 -1.190811 7.893203 -1.831831 0.187550 -0.076086 0.338216 0.376673 -0.143385 1.983302 0.374929 -0.147889 22.978042 11.032319 -2.679214 5.440784 -11.303270 -0.506196 -12.373463 -15.693801 -11.976026 -144.612672 -174.807886 -86.822599 0.000000 -0.000001 -0.000000 88.839410 -0.383467 5.507815 -0.000006 0.000003 -3.004698 -5.000179 -8.000089 -0.000006 -6.591306 33.366038 5.292028 -133.582340 187.079305 95.500313 0.000001 0.000002 0.000000 63.313203 -4.101654 0.394749 -0.000005 -0.000000 3.001162 -5.000221 7.999092 -0.000098 0.167297 -177.431007 2.621178 -179.999991 0.000005 -1.085996 171.194238 -1.446757 -0.615090 -0.000001 0.000003 0.219128 71.509219 6.854928 2.046228 25.456952 -7.355615 0.000001 3.297857 176.344051 -0.462756 -0.000005 -0.000004 -1.167268 -5.174613 1.233573 0.171540 -0.000003 0.000002 -0.042552 68.505220 -6.922354 -2.103767 25.456953 7.355616 -0.000010 
53.676605 -11.708817 96.913399 -2.530186 -1.190109 7.911803 -1.838112 0.192864 -0.074130 0.325734 0.387226 -0.137998 1.970825 0.385545 -0.142629 23.021991 10.900698 -2.659864 5.426637 -11.236609 -0.499659 -12.374485 -15.625813 -11.971603 -144.578576 -174.775552 -86.843465 0.000000 -0.000001 -0.000000 89.381426 -0.478238 5.613519 -0.000004 0.000002 -3.004694 -5.000177 -8.000090 -0.000006 -6.522124 33.304269 5.189143 -133.543340 187.124043 95.522593 -0.000000 0.000002 0.000001 63.562546 -4.065764 0.379502 -0.000003 0.000003 3.001139 -5.000218 7.999090 -0.000100 0.162509 -177.436020 2.615929 -179.999991 0.000005 -1.085995 171.213663 -1.446832 -0.614600 -0.000000 0.000003 0.218563 71.506138 6.855016 2.046532 25.456957 -7.355615 0.000000 3.279372 176.339994 -0.460883 -0.000005 -0.000004 -1.166589 -5.169430 1.232966 0.171399 -0.000003 0.000002 -0.042593 68.507439 -6.922360 -2.103830 25.456957 7.355615 -0.000011 
